{
    "asset" : {
        "generator" : "Khronos glTF Blender I/O v1.5.17",
        "version" : "2.0"
    },
    "scene" : 0,
    "scenes" : [
        {
            "name" : "Scene",
            "nodes" : [
                0,
                1
            ]
        }
    ],
    "nodes" : [
        {
            "mesh" : 0,
            "name" : "Plane",
            "rotation" : [
                0.15493306517601013,
                0.689924418926239,
                -0.6899244785308838,
                0.15493306517601013
            ],
            "scale" : [
                20.728933334350586,
                10.364466667175293,
                10.364466667175293
            ]
        },
        {
            "name" : "Point",
            "rotation" : [
                0.7071068286895752,
                0,
                0,
                0.7071068286895752
            ],
            "scale" : [
                26.620141983032227,
                26.620141983032227,
                26.620141983032227
            ]
        }
    ],
    "materials" : [
        {
            "doubleSided" : true,
            "name" : "Material.001",
            "pbrMetallicRoughness" : {
                "baseColorTexture" : {
                    "index" : 0
                },
                "metallicFactor" : 0,
                "roughnessFactor" : 0.5
            }
        }
    ],
    "meshes" : [
        {
            "name" : "Plane",
            "primitives" : [
                {
                    "attributes" : {
                        "POSITION" : 0,
                        "NORMAL" : 1,
                        "TEXCOORD_0" : 2
                    },
                    "indices" : 3,
                    "material" : 0
                }
            ]
        }
    ],
    "textures" : [
        {
            "sampler" : 0,
            "source" : 0
        }
    ],
    "images" : [
        {
            "bufferView" : 4,
            "mimeType" : "image/jpeg",
            "name" : "360_image1"
        }
    ],
    "accessors" : [
        {
            "bufferView" : 0,
            "componentType" : 5126,
            "count" : 24484,
            "max" : [
                0.3183099329471588,
                0.6304813623428345,
                0.6366197466850281
            ],
            "min" : [
                -0.3183099329471588,
                -0.6427583694458008,
                -0.6366199851036072
            ],
            "type" : "VEC3"
        },
        {
            "bufferView" : 1,
            "componentType" : 5126,
            "count" : 24484,
            "type" : "VEC3"
        },
        {
            "bufferView" : 2,
            "componentType" : 5126,
            "count" : 24484,
            "type" : "VEC2"
        },
        {
            "bufferView" : 3,
            "componentType" : 5123,
            "count" : 24576,
            "type" : "SCALAR"
        }
    ],
    "bufferViews" : [
        {
            "buffer" : 0,
            "byteLength" : 293808,
            "byteOffset" : 0
        },
        {
            "buffer" : 0,
            "byteLength" : 293808,
            "byteOffset" : 293808
        },
        {
            "buffer" : 0,
            "byteLength" : 195872,
            "byteOffset" : 587616
        },
        {
            "buffer" : 0,
            "byteLength" : 49152,
            "byteOffset" : 783488
        },
        {
            "buffer" : 0,
            "byteLength" : 30170,
            "byteOffset" : 832640
        }
    ],
    "samplers" : [
        {
            "magFilter" : 9729,
            "minFilter" : 9987
        }
    ],
    "buffers" : [
        {
            "byteLength" : 862812,
            "uri" : "data:application/octet-stream;base64,"
        }
    ]
}
