{
    "asset" : {
        "generator" : "Khronos glTF Blender I/O v1.5.17",
        "version" : "2.0"
    },
    "scene" : 0,
    "scenes" : [
        {
            "name" : "Scene",
            "nodes" : [
                0,
                1,
                2
            ]
        }
    ],
    "nodes" : [
        {
            "mesh" : 0,
            "name" : "Plane",
            "rotation" : [
                0.15493306517601013,
                0.689924418926239,
                -0.6899244785308838,
                0.15493306517601013
            ],
            "scale" : [
                12.570167541503906,
                6.285083770751953,
                6.285083770751953
            ]
        },
        {
            "name" : "Camera",
            "rotation" : [
                0.5324839353561401,
                -0.4916878044605255,
                0.536258339881897,
                0.4325863718986511
            ],
            "scale" : [
                0.10225231200456619,
                0.10225231200456619,
                0.102252297103405
            ],
            "translation" : [
                0,
                0.3366822600364685,
                0.33155691623687744
            ]
        },
        {
            "mesh" : 1,
            "name" : "Plane.001",
            "rotation" : [
                0.15493306517601013,
                0.689924418926239,
                -0.6899244785308838,
                0.15493306517601013
            ],
            "scale" : [
                12.570167541503906,
                6.285083770751953,
                6.285083770751953
            ],
            "translation" : [
                -10,
                0,
                -10
            ]
        }
    ],
    "materials" : [
        {
            "doubleSided" : true,
            "name" : "Material.001",
            "pbrMetallicRoughness" : {
                "baseColorTexture" : {
                    "index" : 0
                },
                "metallicFactor" : 0,
                "roughnessFactor" : 0.5
            }
        },
        {
            "doubleSided" : true,
            "name" : "Material.002",
            "pbrMetallicRoughness" : {
                "baseColorTexture" : {
                    "index" : 1
                },
                "metallicFactor" : 0,
                "roughnessFactor" : 0.5
            }
        }
    ],
    "meshes" : [
        {
            "name" : "Plane",
            "primitives" : [
                {
                    "attributes" : {
                        "POSITION" : 0,
                        "NORMAL" : 1,
                        "TEXCOORD_0" : 2
                    },
                    "indices" : 3,
                    "material" : 0
                }
            ]
        },
        {
            "name" : "Plane.002",
            "primitives" : [
                {
                    "attributes" : {
                        "POSITION" : 4,
                        "NORMAL" : 5,
                        "TEXCOORD_0" : 6
                    },
                    "indices" : 3,
                    "material" : 1
                }
            ]
        }
    ],
    "textures" : [
        {
            "sampler" : 0,
            "source" : 0
        },
        {
            "sampler" : 0,
            "source" : 1
        }
    ],
    "images" : [
        {
            "bufferView" : 4,
            "mimeType" : "image/jpeg",
            "name" : "360_image1"
        },
        {
            "bufferView" : 8,
            "mimeType" : "image/jpeg",
            "name" : "360 image2"
        }
    ],
    "accessors" : [
        {
            "bufferView" : 0,
            "componentType" : 5126,
            "count" : 24322,
            "max" : [
                0.3183099329471588,
                0.6304813623428345,
                0.6366197466850281
            ],
            "min" : [
                -0.3183099329471588,
                -0.6427583694458008,
                -0.6366199851036072
            ],
            "type" : "VEC3"
        },
        {
            "bufferView" : 1,
            "componentType" : 5126,
            "count" : 24322,
            "type" : "VEC3"
        },
        {
            "bufferView" : 2,
            "componentType" : 5126,
            "count" : 24322,
            "type" : "VEC2"
        },
        {
            "bufferView" : 3,
            "componentType" : 5123,
            "count" : 24576,
            "type" : "SCALAR"
        },
        {
            "bufferView" : 5,
            "componentType" : 5126,
            "count" : 24322,
            "max" : [
                0.3183099329471588,
                0.6304813623428345,
                0.6366197466850281
            ],
            "min" : [
                -0.3183099329471588,
                -0.6427583694458008,
                -0.6366199851036072
            ],
            "type" : "VEC3"
        },
        {
            "bufferView" : 6,
            "componentType" : 5126,
            "count" : 24322,
            "type" : "VEC3"
        },
        {
            "bufferView" : 7,
            "componentType" : 5126,
            "count" : 24322,
            "type" : "VEC2"
        }
    ],
    "bufferViews" : [
        {
            "buffer" : 0,
            "byteLength" : 291864,
            "byteOffset" : 0
        },
        {
            "buffer" : 0,
            "byteLength" : 291864,
            "byteOffset" : 291864
        },
        {
            "buffer" : 0,
            "byteLength" : 194576,
            "byteOffset" : 583728
        },
        {
            "buffer" : 0,
            "byteLength" : 49152,
            "byteOffset" : 778304
        },
        {
            "buffer" : 0,
            "byteLength" : 30170,
            "byteOffset" : 827456
        },
        {
            "buffer" : 0,
            "byteLength" : 291864,
            "byteOffset" : 857628
        },
        {
            "buffer" : 0,
            "byteLength" : 291864,
            "byteOffset" : 1149492
        },
        {
            "buffer" : 0,
            "byteLength" : 194576,
            "byteOffset" : 1441356
        },
        {
            "buffer" : 0,
            "byteLength" : 1324802,
            "byteOffset" : 1635932
        }
    ],
    "samplers" : [
        {
            "magFilter" : 9729,
            "minFilter" : 9987
        }
    ],
    "buffers" : [
        {
            "byteLength" : 2960736,
            "uri" : "data:application/octet-stream;base64,"
        }
    ]
}
